<svg xmlns="http://www.w3.org/2000/svg" viewBox="0 0 159.61 155.63"><defs><style>.cls-1{fill:#fff;fill-rule:evenodd;}</style></defs><g id="Layer_2" data-name="Layer 2"><g id="Layer_1-2" data-name="Layer 1"><path class="cls-1" d="M80.21,0A17.26,17.26,0,1,1,63,17.26,17.25,17.25,0,0,1,80.21,0"/><path class="cls-1" d="M17.7,55.71v.06a3.28,3.28,0,0,0-.08.64,2.12,2.12,0,0,0,1.51,2,12.73,12.73,0,0,0,4.72.65,11,11,0,0,0,3.81-.53Q29,58,29,57q0-1.41-5.45-2.29l-.95-.16-1-.17Q13,53,10.5,51.35a5.59,5.59,0,0,1-1.82-1.91A5.09,5.09,0,0,1,8.07,47q0-3.37,4-5.15T23.69,40q7.56,0,11.21,1.66t3.65,5.1v.27H29V47c0-.79-.48-1.38-1.44-1.79a11.64,11.64,0,0,0-4.26-.61A10,10,0,0,0,20,45c-.79.29-1.18.71-1.18,1.24,0,1,2.08,1.76,6.25,2.44L26.9,49a63.56,63.56,0,0,1,6.34,1.28A17.35,17.35,0,0,1,36.5,51.5a6.48,6.48,0,0,1,2.36,2.11,5,5,0,0,1,.83,2.8q0,3.48-4.34,5.36c-2.88,1.25-7,1.88-12.46,1.88s-9.25-.6-11.64-1.81a6,6,0,0,1-3.59-5.79v-.34Zm26.18,7.56V40.39H71.12v4.93h-17V49H69.84v4.87H54.11v4.44H71.77v5Zm32.16,0V40.39H89l13.86,15.35V40.39h9.83V63.27H99.24L85.83,47.86V63.27Zm63.05-9.13-4.89-8.32L129,54.14Zm-15.58,9.13H113.25l15.83-22.88h11.35l15.11,22.88H144.15l-2.31-4.13H126Z"/><path class="cls-1" d="M30.28,143.93l-9.14-8.59L49,87.06a4,4,0,0,0-3.42-5.92H0V69.06H73.29Z"/><path class="cls-1" d="M129.33,143.93l9.14-8.59L110.66,87.06a4,4,0,0,1,3.42-5.92h45.53V69.06H86.32Z"/><path class="cls-1" d="M79.71,81.82a1.21,1.21,0,0,1,.1-.16l41.3,68.26-11,5.71L83.53,111.06a4,4,0,0,0-6.93,0L50.16,155.63l-10.74-5.31,40.29-68.5"/></g></g></svg>